HIERARCHY
ROOT Hips
{
	OFFSET 0.000000 89.005402 0.000000
	CHANNELS 6 Xposition Yposition Zposition Xrotation Yrotation Zrotation
	JOINT Spine
	{
		OFFSET 0.116900 10.681000 0.373400
		CHANNELS 3 Xrotation Yrotation Zrotation
		JOINT Spine1
		{
			OFFSET 0.000000 13.840401 0.053500
			CHANNELS 3 Xrotation Yrotation Zrotation
			JOINT Spine2
			{
				OFFSET 0.000000 14.712700 -0.366200
				CHANNELS 3 Xrotation Yrotation Zrotation
				JOINT Neck
				{
					OFFSET 0.000000 35.415497 -3.314200
					CHANNELS 3 Xrotation Yrotation Zrotation
					JOINT Head
					{
						OFFSET 0.000000 16.899200 1.218300
						CHANNELS 3 Xrotation Yrotation Zrotation
						JOINT HeadTop_End
						{
							OFFSET 0.000000 22.206207 2.192500
							CHANNELS 3 Xrotation Yrotation Zrotation
							End Site
							{
								OFFSET 0.000000 22.314178 0.000000
							}
						}
					}
				}
				JOINT LeftShoulder
				{
					OFFSET 12.896400 26.716293 -4.548400
					CHANNELS 3 Xrotation Yrotation Zrotation
					JOINT LeftArm
					{
						OFFSET 19.027000 -4.857010 -1.718400
						CHANNELS 3 Xrotation Yrotation Zrotation
						JOINT LeftForeArm
						{
							OFFSET 24.179897 0.000000 0.000000
							CHANNELS 3 Xrotation Yrotation Zrotation
							JOINT LeftHand
							{
								OFFSET 27.156403 0.000000 0.000000
								CHANNELS 3 Xrotation Yrotation Zrotation
								JOINT LeftHandIndex1
								{
									OFFSET 16.441200 0.000000 0.000000
									CHANNELS 3 Xrotation Yrotation Zrotation
									JOINT LeftHandIndex2
									{
										OFFSET 4.821899 0.000000 0.000000
										CHANNELS 3 Xrotation Yrotation Zrotation
										JOINT LeftHandIndex3
										{
											OFFSET 6.386497 0.000000 0.000000
											CHANNELS 3 Xrotation Yrotation Zrotation
											JOINT LeftHandIndex4
											{
												OFFSET 5.188988 0.000000 0.000000
												CHANNELS 3 Xrotation Yrotation Zrotation
												End Site
												{
													OFFSET -0.178703 5.185913 0.000177
												}
											}
										}
									}
								}
								JOINT LeftHandThumb1
								{
									OFFSET 6.534897 -5.032593 5.900300
									CHANNELS 3 Xrotation Yrotation Zrotation
									JOINT LeftHandThumb2
									{
										OFFSET 3.818176 -2.204422 2.204423
										CHANNELS 3 Xrotation Yrotation Zrotation
										JOINT LeftHandThumb3
										{
											OFFSET 3.252098 -1.877594 1.877601
											CHANNELS 3 Xrotation Yrotation Zrotation
											JOINT LeftHandThumb4
											{
												OFFSET 5.251778 -3.032120 3.032117
												CHANNELS 3 Xrotation Yrotation Zrotation
												End Site
												{
													OFFSET 0.000023 6.780014 0.000000
												}
											}
										}
									}
								}
							}
						}
					}
				}
				JOINT RightShoulder
				{
					OFFSET -12.896300 26.716293 -4.548400
					CHANNELS 3 Xrotation Yrotation Zrotation
					JOINT RightArm
					{
						OFFSET -19.027000 -4.857010 -1.718400
						CHANNELS 3 Xrotation Yrotation Zrotation
						JOINT RightForeArm
						{
							OFFSET -24.179897 0.000000 0.000000
							CHANNELS 3 Xrotation Yrotation Zrotation
							JOINT RightHand
							{
								OFFSET -27.156403 0.000000 0.000000
								CHANNELS 3 Xrotation Yrotation Zrotation
								JOINT RightHandThumb1
								{
									OFFSET -6.591202 -4.852203 5.988100
									CHANNELS 3 Xrotation Yrotation Zrotation
									JOINT RightHandThumb2
									{
										OFFSET -3.818176 -2.204422 2.204423
										CHANNELS 3 Xrotation Yrotation Zrotation
										JOINT RightHandThumb3
										{
											OFFSET -3.252098 -1.877594 1.877601
											CHANNELS 3 Xrotation Yrotation Zrotation
											JOINT RightHandThumb4
											{
												OFFSET -5.251778 -3.032120 3.032117
												CHANNELS 3 Xrotation Yrotation Zrotation
												End Site
												{
													OFFSET -0.000023 6.780014 0.000000
												}
											}
										}
									}
								}
								JOINT RightHandIndex1
								{
									OFFSET -16.029404 0.000000 0.000000
									CHANNELS 3 Xrotation Yrotation Zrotation
									JOINT RightHandIndex2
									{
										OFFSET -5.213303 0.000000 0.000000
										CHANNELS 3 Xrotation Yrotation Zrotation
										JOINT RightHandIndex3
										{
											OFFSET -6.386528 0.000000 0.000000
											CHANNELS 3 Xrotation Yrotation Zrotation
											JOINT RightHandIndex4
											{
												OFFSET -5.189026 0.000000 0.000000
												CHANNELS 3 Xrotation Yrotation Zrotation
												End Site
												{
													OFFSET 0.236702 5.183624 0.001972
												}
											}
										}
									}
								}
							}
						}
					}
				}
			}
		}
	}
	JOINT LeftUpLeg
	{
		OFFSET 14.073000 -7.904099 -1.463000
		CHANNELS 3 Xrotation Yrotation Zrotation
		JOINT LeftLeg
		{
			OFFSET -0.109806 -34.073280 4.093200
			CHANNELS 3 Xrotation Yrotation Zrotation
			JOINT LeftFoot
			{
				OFFSET 0.109806 -29.899420 -6.319000
				CHANNELS 3 Xrotation Yrotation Zrotation
				JOINT LeftToeBase
				{
					OFFSET 1.551100 -14.988700 20.535801
					CHANNELS 3 Xrotation Yrotation Zrotation
					JOINT LeftToe_End
					{
						OFFSET 0.221200 0.570800 13.248301
						CHANNELS 3 Xrotation Yrotation Zrotation
						End Site
						{
							OFFSET 0.000000 13.262435 0.000000
						}
					}
				}
			}
		}
	}
	JOINT RightUpLeg
	{
		OFFSET -13.839300 -7.904099 -1.463000
		CHANNELS 3 Xrotation Yrotation Zrotation
		JOINT RightLeg
		{
			OFFSET 0.109694 -34.073219 4.093300
			CHANNELS 3 Xrotation Yrotation Zrotation
			JOINT RightFoot
			{
				OFFSET -0.109694 -29.899384 -6.319200
				CHANNELS 3 Xrotation Yrotation Zrotation
				JOINT RightToeBase
				{
					OFFSET -1.551100 -14.988700 20.535801
					CHANNELS 3 Xrotation Yrotation Zrotation
					JOINT RightToe_End
					{
						OFFSET -0.221200 0.570900 13.248299
						CHANNELS 3 Xrotation Yrotation Zrotation
						End Site
						{
							OFFSET 0.000000 13.262440 0.000000
						}
					}
				}
			}
		}
	}
}
MOTION
Frames: 8
Frame Time: 0.033333
0.464257 85.518234 1.484355 -7.149062 -4.194502 -3.867779 3.333441 1.699788 2.090026 1.196218 0.624646 1.355021 1.169987 0.649495 1.357026 6.126698 0.481097 -2.143200 -18.666391 6.768286 -7.795852 0.000000 0.000000 -0.000000 1.435395 -16.706959 -9.719270 2.826132 -19.455597 -71.871690 -0.000006 -0.771285 0.000007 -32.706617 -1.239129 -6.862881 0.103673 -0.833325 -7.834813 0.266911 1.749829 -17.344326 0.057226 0.817734 -8.006271 -0.000001 0.000000 0.000002 -0.653238 2.138440 4.807713 11.847950 25.425714 17.016564 -13.806509 3.520610 9.008655 0.000000 0.000003 0.000003 1.621820 14.248789 12.203858 12.050448 29.457677 61.015487 -0.000001 6.296465 -0.000014 -20.118049 -0.814686 7.544999 -1.292379 -0.088959 -4.258800 12.719639 -29.822109 -16.106990 -15.602980 -3.577316 -12.846245 0.000001 -0.000000 0.000001 -0.009226 1.544076 6.466308 0.211436 -1.388711 17.312931 0.044961 -0.646265 7.959172 0.000003 -0.000001 -0.000000 -12.799340 15.087773 13.191686 25.669309 0.565807 4.745005 -7.049622 0.026399 -9.009755 -5.173239 -0.000002 0.000001 -0.000000 0.000000 0.000000 2.589940 -9.940144 1.973412 18.195803 -9.245763 -3.211762 -12.462602 -4.136847 5.754573 -7.687486 0.000002 0.000001 -0.000000 -0.000001 0.000000 
0.471190 85.548164 1.552650 -7.451249 -4.108904 -3.870667 3.285126 1.723619 2.097158 1.089055 0.668125 1.367708 1.062816 0.692919 1.370370 6.812895 0.539057 -2.455874 -16.920861 7.468806 -8.886528 -0.000001 -0.000000 0.000000 1.323478 -16.710355 -10.444225 3.622711 -19.091192 -71.474016 0.000001 -0.718272 0.000002 -32.660086 -1.347913 -6.807801 0.138073 -0.803727 -7.809239 0.267115 1.750474 -17.350979 0.057321 0.818392 -8.012769 0.000000 0.000001 0.000001 -0.850771 2.220503 4.995948 11.867205 25.442178 16.949664 -13.816716 3.513943 9.047261 -0.000002 -0.000001 -0.000001 1.487637 14.158893 13.036723 13.134226 29.153539 60.346169 -0.000002 6.040363 -0.000008 -19.753672 -1.037745 7.692638 -1.488843 -0.197842 -4.389237 12.732211 -29.823775 -16.070988 -15.601853 -3.568404 -12.826505 -0.000003 0.000001 -0.000001 -0.014720 1.538271 6.526238 0.208281 -1.378575 17.182483 0.043506 -0.635747 7.828776 0.000000 0.000000 -0.000001 -12.358935 15.114275 13.093051 25.559027 0.551127 4.856063 -7.065971 0.012249 -9.065831 -5.168270 0.000004 -0.000001 0.000000 -0.000001 0.000000 3.120028 -9.945834 2.013119 17.946457 -9.276217 -3.286698 -12.449876 -4.173011 5.807698 -7.676322 -0.000008 -0.000001 -0.000001 0.000001 0.000000 
0.478898 85.623573 1.603998 -7.628767 -4.033368 -3.838999 3.226190 1.749048 2.087418 0.965792 0.716521 1.347280 0.939515 0.741510 1.350593 7.305152 0.618679 -2.696700 -14.443461 8.048027 -9.793065 -0.000001 0.000000 0.000000 1.223443 -16.604699 -11.077849 4.398308 -18.773407 -71.052006 0.000004 -0.801493 0.000023 -32.856943 -1.660509 -6.760188 0.089787 -0.872484 -7.671423 0.266616 1.748878 -17.334677 0.057089 0.816759 -7.996632 -0.000000 -0.000000 -0.000002 -1.182335 2.176216 5.194677 11.937309 25.500848 16.709370 -13.773941 3.439963 9.035685 0.000000 0.000001 0.000001 1.376688 14.077088 13.731939 14.108899 28.867200 59.776805 0.000003 5.836389 0.000015 -19.481455 -1.212391 7.664784 -1.328085 -0.128487 -4.318303 12.727925 -29.828638 -16.082058 -15.607617 -3.572341 -12.834244 0.000001 -0.000001 0.000001 -0.022137 1.583895 6.487264 0.210894 -1.386997 17.290762 0.044714 -0.644472 7.936996 0.000002 -0.000000 -0.000003 -11.921608 15.137881 12.956941 25.181506 0.545281 4.898488 -6.945151 -0.002251 -9.105289 -5.163112 0.000004 0.000002 -0.000001 -0.000001 0.000000 3.561395 -9.956311 2.054741 17.530123 -9.313149 -3.375814 -12.318009 -4.188813 5.793950 -7.663593 0.000005 -0.000001 -0.000000 0.000003 0.000000 
0.488510 85.693481 1.620404 -7.693175 -3.944000 -3.790503 3.178582 1.769471 2.067223 0.868754 0.756632 1.311763 0.842451 0.781994 1.315560 7.559108 0.718010 -2.865391 -11.613384 8.480914 -10.473263 -0.000000 -0.000000 -0.000000 1.138656 -16.441765 -11.607503 5.055906 -18.510743 -70.590715 -0.000000 -0.978499 -0.000003 -33.266815 -2.002151 -6.767022 -0.002718 -0.958696 -7.733770 0.267166 1.750632 -17.352548 0.057351 0.818599 -8.014807 -0.000000 0.000000 0.000002 -1.554850 2.157022 5.442585 12.008267 25.558805 16.468025 -13.725751 3.363732 9.011990 0.000000 0.000003 -0.000001 1.293475 14.015217 14.259657 14.869832 28.573681 59.319824 -0.000000 5.729063 -0.000001 -19.358918 -1.290677 7.517820 -1.372360 -0.160374 -4.445067 12.784911 -29.847582 -15.916434 -15.584823 -3.535940 -12.839226 0.000001 -0.000002 -0.000004 -0.025000 1.686042 6.210826 0.215090 -1.400387 17.463093 0.046676 -0.658371 8.109273 0.000002 0.000000 -0.000001 -11.642965 15.157189 12.847662 24.795434 0.559749 4.882131 -6.793646 -0.077932 -9.121590 -5.159107 0.000000 0.000000 0.000000 -0.000000 0.000000 3.809781 -9.977212 2.071955 17.192541 -9.358588 -3.440718 -12.179267 -4.199565 5.762360 -7.644579 -0.000001 0.000000 0.000000 -0.000001 0.000000 
0.499794 85.739838 1.598350 -7.679072 -3.818369 -3.741827 3.156545 1.779461 2.048675 0.824049 0.777264 1.282591 0.797753 0.802988 1.286611 7.605979 0.837917 -2.993952 -8.884213 8.816587 -10.895430 -0.000000 0.000002 -0.000001 1.075377 -16.337968 -12.008043 5.522738 -18.303292 -70.138905 -0.000002 -1.146935 0.000001 -33.717779 -2.190336 -6.842796 -0.012194 -0.975243 -7.756710 0.268063 1.753508 -17.382014 0.057770 0.821575 -8.044144 -0.000000 0.000000 -0.000000 -1.518831 2.083354 5.370941 11.985450 25.540502 16.544433 -13.726033 3.378626 8.990653 0.000001 -0.000001 0.000004 1.239941 13.989223 14.603595 15.382858 28.302332 58.946554 -0.000000 5.712603 -0.000003 -19.383416 -1.304206 7.401086 -1.430288 -0.152550 -4.500871 12.806150 -29.854566 -15.854783 -15.575258 -3.520174 -12.839129 -0.000001 -0.000000 -0.000003 -0.026182 1.720584 6.121938 0.211782 -1.389827 17.327246 0.045131 -0.647422 7.973442 -0.000000 -0.000000 0.000001 -11.554301 15.154120 12.769795 24.510940 0.587635 4.854644 -6.648563 -0.208228 -9.120112 -5.157906 0.000001 0.000003 -0.000000 0.000000 0.000000 3.894845 -10.001751 2.079377 16.972235 -9.440409 -3.485136 -12.071425 -4.209397 5.745041 -7.620604 0.000007 0.000001 0.000000 0.000000 -0.000000 
0.510705 85.772041 1.547729 -7.620062 -3.662567 -3.703991 3.157905 1.781418 2.043446 0.825278 0.780244 1.271518 0.799011 0.807748 1.273775 7.562519 0.974604 -3.102065 -6.657372 9.162638 -11.082981 0.000000 0.000000 0.000000 1.039058 -16.340432 -12.248905 5.756112 -18.179862 -69.772930 -0.000001 -1.192892 -0.000006 -33.883045 -2.117160 -6.927697 -0.009794 -0.955822 -7.819457 0.267254 1.750914 -17.355441 0.057391 0.818890 -8.017664 -0.000000 0.000000 0.000001 -1.392772 1.998180 5.226416 11.952385 25.513687 16.656005 -13.733552 3.404835 8.973066 -0.000000 0.000000 -0.000000 1.215724 14.023972 14.759165 15.657860 28.105848 58.646928 0.000002 5.724256 0.000000 -19.444860 -1.324841 7.375271 -1.361497 -0.124522 -4.405194 12.773705 -29.843897 -15.948948 -15.601948 -3.545921 -12.862267 0.000001 0.000001 0.000002 -0.013098 1.626575 6.257774 0.211424 -1.388698 17.312600 0.044958 -0.646235 7.958854 -0.000001 -0.000000 0.000003 -11.590833 15.123152 12.702074 24.299762 0.621295 4.848304 -6.508406 -0.359749 -9.093515 -5.157665 -0.000002 -0.000003 -0.000000 -0.000000 0.000000 3.905024 -10.007959 2.104624 16.775962 -9.575691 -3.536676 -11.955880 -4.216765 5.774312 -7.596696 0.000002 -0.000001 -0.000000 0.000002 0.000000 
0.519228 85.805054 1.482841 -7.536107 -3.508024 -3.681096 3.170133 1.781577 2.043926 0.846880 0.778352 1.271642 0.820409 0.809955 1.273503 7.548814 1.114089 -3.178530 -5.135354 9.598669 -11.125767 0.000000 0.000001 -0.000000 1.028795 -16.392249 -12.327938 5.751025 -18.134338 -69.544187 -0.000009 -1.073895 0.000022 -33.584884 -1.797651 -6.957273 0.038172 -0.863017 -8.050710 0.267556 1.751887 -17.365464 0.057529 0.819894 -8.027546 -0.000000 0.000000 -0.000001 -1.014848 2.026875 4.982443 11.897170 25.468075 16.843735 -13.774276 3.466753 8.996955 -0.000001 0.000000 0.000000 1.216907 14.115953 14.747924 15.696564 27.978174 58.464589 0.000002 5.700341 -0.000005 -19.362271 -1.386383 7.360060 -1.234369 -0.116017 -4.253877 12.722984 -29.826961 -16.096420 -15.626853 -3.571548 -12.868075 0.000003 -0.000001 0.000001 0.000330 1.513589 6.453791 0.211451 -1.388773 17.313640 0.044966 -0.646323 7.959899 0.000001 -0.000000 0.000000 -11.674897 15.074446 12.637781 24.098279 0.651319 4.860175 -6.358288 -0.496038 -9.050400 -5.157732 0.000006 0.000001 -0.000001 0.000000 0.000000 3.897332 -9.992801 2.155335 16.539575 -9.638629 -3.597800 -11.787130 -4.310905 5.833258 -7.577186 0.000005 -0.000002 0.000000 0.000001 0.000000 
0.525091 85.845650 1.414823 -7.437448 -3.386570 -3.670684 3.182619 1.782220 2.048293 0.868922 0.779151 1.276226 0.842375 0.812818 1.277427 7.601994 1.236781 -3.210787 -4.229666 10.080329 -11.097327 -0.000000 0.000001 -0.000000 1.022145 -16.434912 -12.382272 5.606822 -18.070106 -69.364157 0.000005 -0.852684 -0.000011 -33.027045 -1.387320 -6.915762 0.073945 -0.823095 -8.084302 0.267631 1.752125 -17.367834 0.057565 0.820121 -8.029785 0.000000 -0.000000 -0.000000 -0.939281 2.096654 4.979548 11.867713 25.443373 16.944511 -13.783440 3.492102 8.985503 -0.000001 0.000000 0.000002 1.220224 14.230722 14.719288 15.557352 27.815711 58.354302 0.000008 5.624748 -0.000007 -19.076408 -1.471638 7.257841 -1.326871 -0.183024 -4.283337 12.701243 -29.818731 -16.159922 -15.635672 -3.591849 -12.864957 -0.000003 -0.000000 -0.000002 0.009071 1.451425 6.549868 0.211365 -1.388482 17.309940 0.044924 -0.646031 7.956171 -0.000001 -0.000000 -0.000001 -11.756381 15.023553 12.579458 23.871357 0.672968 4.870652 -6.198495 -0.591424 -9.001488 -5.157496 -0.000000 -0.000003 -0.000000 -0.000001 -0.000000 3.892502 -9.976212 2.219585 16.242342 -9.614958 -3.646729 -11.579084 -4.452367 5.871598 -7.561041 0.000006 0.000001 -0.000000 0.000001 0.000000 
